<svg width="70" height="82" viewBox="0 0 70 82" fill="none" xmlns="http://www.w3.org/2000/svg">
<path d="M32.0861 0C36.1202 0 39.4689 2.8265 40.4723 6.56307C41.499 6.14012 42.5812 5.83384 43.7538 5.83384C48.5522 5.83384 52.5046 9.78627 52.5046 14.5846V45.9415L55.0569 43.3892C56.7075 41.7579 58.9346 40.843 61.2553 40.843C63.5761 40.843 65.8032 41.7579 67.4538 43.3892C69.0851 45.0398 70 47.2669 70 49.5877C70 51.9084 69.0851 54.1355 67.4538 55.7861L47.6742 75.5658C44.2439 78.9844 39.5039 81.6738 33.9092 81.6738H20.4184C9.17372 81.6738 0 72.5001 0 61.2553V26.2523C0 21.454 3.95243 17.5015 8.75077 17.5015C9.7472 17.5169 10.7337 17.7024 11.6677 18.0499V14.5846C11.6677 9.78627 15.6201 5.83384 20.4184 5.83384C21.5911 5.83384 22.6732 6.14012 23.7 6.56307C24.7034 2.8265 28.052 0 32.0861 0ZM32.0861 5.83384C30.4352 5.83384 29.1692 7.09979 29.1692 8.75076V37.92H23.3354V14.5846C23.3354 12.9336 22.0694 11.6677 20.4184 11.6677C18.7675 11.6677 17.5015 12.9336 17.5015 14.5846V37.92H11.6677V26.2523C11.6677 24.6013 10.4017 23.3354 8.75077 23.3354C7.09979 23.3354 5.83385 24.6013 5.83385 26.2523V61.2553C5.83385 69.344 12.3298 75.84 20.4184 75.84H33.9092C37.6225 75.84 40.8136 74.0285 43.4796 71.3741L63.3526 51.6849C63.629 51.4101 63.8484 51.0833 63.998 50.7233C64.1477 50.3634 64.2248 49.9775 64.2248 49.5877C64.2248 49.1979 64.1477 48.8119 63.998 48.452C63.8484 48.092 63.629 47.7653 63.3526 47.4904C63.0777 47.214 62.751 46.9947 62.391 46.845C62.0311 46.6953 61.6451 46.6183 61.2553 46.6183C60.8655 46.6183 60.4796 46.6953 60.1197 46.845C59.7597 46.9947 59.4329 47.214 59.1581 47.4904L51.6849 55.0569L46.6707 60.0711V14.5846C46.6707 12.9336 45.4048 11.6677 43.7538 11.6677C42.1028 11.6677 40.8369 12.9336 40.8369 14.5846V37.92H35.0031V8.75076C35.0031 7.09979 33.7371 5.83384 32.0861 5.83384Z" fill="white"/>
</svg>
