<svg width="70" height="82" viewBox="0 0 70 82" fill="none" xmlns="http://www.w3.org/2000/svg">
<path d="M37.9139 0.163086C33.8798 0.163086 30.5311 2.98958 29.5277 6.72616C28.501 6.3032 27.4188 5.99693 26.2462 5.99693C21.4478 5.99693 17.4954 9.94936 17.4954 14.7477V46.1046L14.9431 43.5523C13.2925 41.921 11.0654 41.0061 8.74466 41.0061C6.42395 41.0061 4.19679 41.921 2.5462 43.5523C0.914869 45.2029 0 47.43 0 49.7507C0 52.0715 0.914869 54.2986 2.5462 55.9492L22.3258 75.7288C25.7561 79.1475 30.4961 81.8369 36.0908 81.8369H49.5816C60.8263 81.8369 70 72.6632 70 61.4184V26.4154C70 21.617 66.0476 17.6646 61.2492 17.6646C60.2528 17.68 59.2663 17.8654 58.3323 18.213V14.7477C58.3323 9.94936 54.3799 5.99693 49.5816 5.99693C48.4089 5.99693 47.3268 6.3032 46.3 6.72616C45.2966 2.98958 41.948 0.163086 37.9139 0.163086ZM37.9139 5.99693C39.5648 5.99693 40.8308 7.26287 40.8308 8.91385V38.0831H46.6646V14.7477C46.6646 13.0967 47.9306 11.8308 49.5816 11.8308C51.2325 11.8308 52.4985 13.0967 52.4985 14.7477V38.0831H58.3323V26.4154C58.3323 24.7644 59.5983 23.4985 61.2492 23.4985C62.9002 23.4985 64.1662 24.7644 64.1662 26.4154V61.4184C64.1662 69.5071 57.6702 76.003 49.5816 76.003H36.0908C32.3775 76.003 29.1864 74.1916 26.5204 71.5372L6.64739 51.848C6.37099 51.5731 6.15165 51.2464 6.00197 50.8864C5.8523 50.5265 5.77525 50.1405 5.77525 49.7507C5.77525 49.3609 5.8523 48.975 6.00197 48.6151C6.15165 48.2551 6.37099 47.9283 6.64739 47.6535C6.92225 47.3771 7.24904 47.1577 7.60897 47.0081C7.96889 46.8584 8.35485 46.7813 8.74466 46.7813C9.13446 46.7813 9.52042 46.8584 9.88034 47.0081C10.2403 47.1577 10.5671 47.3771 10.8419 47.6535L18.3151 55.22L23.3293 60.2342V14.7477C23.3293 13.0967 24.5952 11.8308 26.2462 11.8308C27.8972 11.8308 29.1631 13.0967 29.1631 14.7477V38.0831H34.9969V8.91385C34.9969 7.26287 36.2629 5.99693 37.9139 5.99693Z" fill="white"/>
</svg>
