<svg width="71" height="71" viewBox="0 0 71 71" fill="none" xmlns="http://www.w3.org/2000/svg">
<path d="M0.125 33.7454C0.13098 32.0369 0.569227 30.3576 1.39893 28.864C2.22863 27.3705 3.42281 26.1111 4.87025 25.2033C3.98711 23.6992 3.51459 21.9896 3.5 20.2454C3.5 14.6936 8.07312 10.1204 13.625 10.1204H25.964L35.036 3.05319C40.6115 -1.25668 48.6136 -0.966436 53.9124 3.68769L62.9844 11.7033C65.5047 13.916 67.5236 16.6413 68.9059 19.697C70.2883 22.7526 71.0022 26.0683 71 29.4221V47.2454C71 60.2561 60.3856 70.8704 47.375 70.8704H17C11.4481 70.8704 6.875 66.2973 6.875 60.7454C6.875 58.9398 7.4015 57.2658 8.24525 55.7876C6.79781 54.8798 5.60363 53.6204 4.77393 52.1268C3.94423 50.6333 3.50598 48.954 3.5 47.2454C3.5 45.4398 4.0265 43.7658 4.87025 42.2876C3.42281 41.3798 2.22863 40.1204 1.39893 38.6268C0.569227 37.1333 0.13098 35.454 0.125 33.7454ZM6.875 33.7454C6.875 35.6557 8.33975 37.1204 10.25 37.1204H20.375V43.8704H13.625C11.7147 43.8704 10.25 45.3352 10.25 47.2454C10.25 49.1557 11.7147 50.6204 13.625 50.6204H20.375V57.3704H17C15.0897 57.3704 13.625 58.8352 13.625 60.7454C13.625 62.6557 15.0897 64.1204 17 64.1204H47.375C56.7339 64.1204 64.25 56.6043 64.25 47.2454V29.4221C64.2586 27.0281 63.7546 24.6601 62.7719 22.4771C61.7893 20.2941 60.3508 18.3467 58.553 16.7658L49.3797 8.75019C47.997 7.51877 46.2255 6.81236 44.3748 6.75437C42.5241 6.69639 40.7119 7.29051 39.2547 8.43294L37.0374 10.1204H40.625V16.8704H13.625C11.7147 16.8704 10.25 18.3352 10.25 20.2454C10.25 22.1557 11.7147 23.6204 13.625 23.6204H20.375V30.3704H10.25C8.33975 30.3704 6.875 31.8352 6.875 33.7454Z" fill="white"/>
</svg>
