<svg width="66" height="72" viewBox="0 0 66 72" fill="none" xmlns="http://www.w3.org/2000/svg">
<path d="M70.875 34.3099C70.869 32.6013 70.4308 30.9221 69.6011 29.4285C68.7714 27.9349 67.5772 26.6756 66.1297 25.7678C67.0129 24.2637 67.4854 22.554 67.5 20.8099C67.5 15.258 62.9269 10.6849 57.375 10.6849H45.036L35.964 3.61764C30.3885 -0.692232 22.3864 -0.401983 17.0876 4.25214L8.01563 12.2678C5.49527 14.4804 3.4764 17.2057 2.09407 20.2614C0.711739 23.3171 -0.00219756 26.6327 5.00679e-06 29.9865V47.8099C5.00679e-06 60.8205 10.6144 71.4349 23.625 71.4349H54C59.5519 71.4349 64.125 66.8618 64.125 61.3099C64.125 59.5043 63.5985 57.8303 62.7548 56.352C64.2022 55.4442 65.3964 54.1849 66.2261 52.6913C67.0558 51.1977 67.494 49.5185 67.5 47.8099C67.5 46.0043 66.9735 44.3303 66.1297 42.852C67.5772 41.9442 68.7714 40.6849 69.6011 39.1913C70.4308 37.6977 70.869 36.0185 70.875 34.3099ZM64.125 34.3099C64.125 36.2201 62.6603 37.6849 60.75 37.6849H50.625V44.4349H57.375C59.2853 44.4349 60.75 45.8996 60.75 47.8099C60.75 49.7201 59.2853 51.1849 57.375 51.1849H50.625V57.9349H54C55.9103 57.9349 57.375 59.3996 57.375 61.3099C57.375 63.2201 55.9103 64.6849 54 64.6849H23.625C14.2661 64.6849 6.75 57.1688 6.75 47.8099V29.9865C6.74145 27.5926 7.24543 25.2245 8.22807 23.0415C9.21071 20.8585 10.6492 18.9111 12.447 17.3303L21.6203 9.31464C23.003 8.08323 24.7745 7.37682 26.6252 7.31883C28.4759 7.26084 30.2881 7.85496 31.7453 8.99739L33.9626 10.6849H30.375V17.4349H57.375C59.2853 17.4349 60.75 18.8996 60.75 20.8099C60.75 22.7201 59.2853 24.1849 57.375 24.1849H50.625V30.9349H60.75C62.6603 30.9349 64.125 32.3996 64.125 34.3099Z" fill="white"/>
</svg>
