<svg width="71" height="51" viewBox="0 0 71 51" fill="none" xmlns="http://www.w3.org/2000/svg">
<g clip-path="url(#clip0_1175_2)">
<path d="M46.735 0.520246C48.3756 0.504742 50.0089 0.741679 51.5775 1.22275H51.655L57.905 3.17525C61.4798 4.27717 64.6074 6.4956 66.8292 9.50515C69.0509 12.5147 70.2498 16.157 70.25 19.8977V33.0977C70.25 42.7352 62.3875 50.5977 52.75 50.5977H27.985C24.9375 50.6652 21.9875 48.8777 20.7975 45.9102C20.045 44.0252 20.1525 42.0427 20.875 40.2852C19.2846 39.4691 18.0381 38.1117 17.36 36.4577C16.9911 35.5206 16.8146 34.5188 16.8413 33.512C16.8679 32.5052 17.097 31.5141 17.515 30.5977H7.75C3.6375 30.5977 0.25 27.2102 0.25 23.0977C0.25 18.9852 3.6375 15.5977 7.75 15.5977H11.5775L10.5625 15.2852C6.6275 14.0927 4.37 9.84525 5.5625 5.91025C6.755 1.97525 11.0025 -0.282254 14.9375 0.910246L36.0325 7.39525C36.2247 6.8819 36.4589 6.38522 36.7325 5.91025C37.9825 3.82025 40.5125 1.45775 44.5475 0.752745C45.2975 0.627745 46.04 0.527746 46.735 0.520246ZM12.4375 5.59775C11.4625 5.70525 10.63 6.38025 10.3275 7.39525C9.9175 8.74275 10.7 10.1102 12.0475 10.5202L29.155 15.6752L28.2975 18.4877V20.5977H7.75C6.335 20.5977 5.25 21.6827 5.25 23.0977C5.25 24.5127 6.335 25.5977 7.75 25.5977H24.235L30.7975 23.0202C31.7133 22.6422 32.6969 22.4559 33.6875 22.4727L35.015 12.2377L13.4525 5.67525C13.1231 5.58008 12.7776 5.5537 12.4375 5.59775ZM46.8125 5.67525C46.335 5.67525 45.8375 5.67525 45.405 5.75275C42.72 6.22275 41.685 7.39525 41.03 8.48775C40.3775 9.58275 40.33 10.3627 40.33 10.3627V10.5202L38.2175 26.6127C38.1964 26.6923 38.1714 26.7707 38.1425 26.8477C38.0663 27.1555 38.0526 27.4755 38.102 27.7887C38.1515 28.1019 38.2631 28.402 38.4304 28.6713C38.5977 28.9407 38.8173 29.1738 39.0761 29.357C39.3349 29.5401 39.6278 29.6696 39.9375 29.7377C40.7475 29.9327 41.1575 29.8252 41.5775 29.5827C41.9975 29.3377 42.515 28.8202 42.905 27.7077L46.03 15.5977C46.1268 15.2334 46.3048 14.8956 46.5507 14.6097C46.7965 14.3239 47.1038 14.0973 47.4496 13.947C47.7954 13.7968 48.1707 13.7266 48.5474 13.7419C48.9241 13.7572 49.2925 13.8575 49.625 14.0352L53.765 16.3002C54.0531 16.4586 54.307 16.6725 54.5121 16.9294C54.7172 17.1863 54.8695 17.4813 54.9601 17.7973C55.0507 18.1134 55.0779 18.4442 55.0402 18.7708C55.0024 19.0974 54.9004 19.4132 54.74 19.7002C54.5816 19.9877 54.368 20.241 54.1115 20.4457C53.8549 20.6504 53.5605 20.8023 53.245 20.8929C52.9296 20.9835 52.5994 21.0109 52.2733 20.9736C51.9472 20.9362 51.6318 20.8348 51.345 20.6752L50.095 19.9727L47.67 29.1927C47.6488 29.2714 47.6238 29.349 47.595 29.4252C46.92 31.3602 45.7675 32.9127 44.155 33.8802C42.8375 34.6702 41.305 34.9727 39.78 34.8177C40.5978 35.5801 41.2379 36.513 41.655 37.5502C42.2036 38.9042 42.3407 40.3899 42.049 41.8214C41.7572 43.2529 41.0497 44.5665 40.015 45.5977H52.75C59.6825 45.5977 65.25 40.0302 65.25 33.0977V19.8952C65.25 14.3952 61.675 9.56275 56.4225 7.94275L50.1725 6.06775C49.665 5.91025 48.2375 5.67525 46.8125 5.67525ZM33.2175 27.5502C33.0325 27.5802 32.8575 27.5502 32.6725 27.6302L23.375 31.3802C22.0675 31.9052 21.4425 33.2727 21.9675 34.5802C22.495 35.8902 23.9425 36.5152 25.25 35.9877L34.5475 32.3177C34.6825 32.2677 34.7425 32.1502 34.86 32.0827C33.8367 30.7893 33.2604 29.199 33.2175 27.5502ZM34.78 37.8627C34.45 37.8627 34.0975 37.8927 33.765 38.0202L30.4075 39.3477L27.125 40.6752L26.8125 40.7552C25.505 41.2802 24.88 42.7277 25.405 44.0352C25.5776 44.4806 25.8767 44.8657 26.2653 45.1433C26.654 45.4209 27.1153 45.5789 27.5925 45.5977H27.6725C28.0177 45.6095 28.3621 45.556 28.6875 45.4402L35.64 42.6277C35.9498 42.5074 36.2325 42.3265 36.4715 42.0957C36.7106 41.8648 36.9012 41.5886 37.0323 41.2832C37.1633 40.9778 37.2322 40.6493 37.2348 40.317C37.2374 39.9847 37.1737 39.6552 37.0475 39.3477C36.9268 39.0486 36.747 38.7769 36.5189 38.5488C36.2909 38.3207 36.0191 38.141 35.72 38.0202C35.4215 37.9012 35.101 37.8475 34.78 37.8627Z" fill="white"/>
</g>
<defs>
<clipPath id="clip0_1175_2">
<rect width="71" height="51" fill="white" transform="matrix(-1 0 0 1 71 0)"/>
</clipPath>
</defs>
</svg>
