<svg width="71" height="51" viewBox="0 0 71 51" fill="none" xmlns="http://www.w3.org/2000/svg">
<path d="M24.265 0.520246C22.6244 0.504742 20.9911 0.741679 19.4225 1.22275H19.345L13.095 3.17525C9.5202 4.27717 6.39257 6.4956 4.17084 9.50515C1.94911 12.5147 0.750217 16.157 0.75 19.8977V33.0977C0.75 42.7352 8.6125 50.5977 18.25 50.5977H43.015C46.0625 50.6652 49.0125 48.8777 50.2025 45.9102C50.955 44.0252 50.8475 42.0427 50.125 40.2852C51.7154 39.4691 52.9619 38.1117 53.64 36.4577C54.0089 35.5206 54.1854 34.5188 54.1587 33.512C54.1321 32.5052 53.903 31.5141 53.485 30.5977H63.25C67.3625 30.5977 70.75 27.2102 70.75 23.0977C70.75 18.9852 67.3625 15.5977 63.25 15.5977H59.4225L60.4375 15.2852C64.3725 14.0927 66.63 9.84525 65.4375 5.91025C64.245 1.97525 59.9975 -0.282254 56.0625 0.910246L34.9675 7.39525C34.7753 6.8819 34.5411 6.38522 34.2675 5.91025C33.0175 3.82025 30.4875 1.45775 26.4525 0.752745C25.7025 0.627745 24.96 0.527746 24.265 0.520246ZM58.5625 5.59775C59.5375 5.70525 60.37 6.38025 60.6725 7.39525C61.0825 8.74275 60.3 10.1102 58.9525 10.5202L41.845 15.6752L42.7025 18.4877V20.5977H63.25C64.665 20.5977 65.75 21.6827 65.75 23.0977C65.75 24.5127 64.665 25.5977 63.25 25.5977H46.765L40.2025 23.0202C39.2867 22.6422 38.3031 22.4559 37.3125 22.4727L35.985 12.2377L57.5475 5.67525C57.8769 5.58008 58.2224 5.5537 58.5625 5.59775ZM24.1875 5.67525C24.665 5.67525 25.1625 5.67525 25.595 5.75275C28.28 6.22275 29.315 7.39525 29.97 8.48775C30.6225 9.58275 30.67 10.3627 30.67 10.3627V10.5202L32.7825 26.6127C32.8036 26.6923 32.8286 26.7707 32.8575 26.8477C32.9337 27.1555 32.9474 27.4755 32.898 27.7887C32.8485 28.1019 32.7369 28.402 32.5696 28.6713C32.4023 28.9407 32.1827 29.1738 31.9239 29.357C31.6651 29.5401 31.3722 29.6696 31.0625 29.7377C30.2525 29.9327 29.8425 29.8252 29.4225 29.5827C29.0025 29.3377 28.485 28.8202 28.095 27.7077L24.97 15.5977C24.8732 15.2334 24.6952 14.8956 24.4493 14.6097C24.2035 14.3239 23.8962 14.0973 23.5504 13.947C23.2046 13.7968 22.8293 13.7266 22.4526 13.7419C22.0759 13.7572 21.7075 13.8575 21.375 14.0352L17.235 16.3002C16.9469 16.4586 16.693 16.6725 16.4879 16.9294C16.2828 17.1863 16.1305 17.4813 16.0399 17.7973C15.9493 18.1134 15.9221 18.4442 15.9598 18.7708C15.9976 19.0974 16.0996 19.4132 16.26 19.7002C16.4184 19.9877 16.632 20.241 16.8885 20.4457C17.1451 20.6504 17.4395 20.8023 17.755 20.8929C18.0704 20.9835 18.4006 21.0109 18.7267 20.9736C19.0528 20.9362 19.3682 20.8348 19.655 20.6752L20.905 19.9727L23.33 29.1927C23.3512 29.2714 23.3762 29.349 23.405 29.4252C24.08 31.3602 25.2325 32.9127 26.845 33.8802C28.1625 34.6702 29.695 34.9727 31.22 34.8177C30.4022 35.5801 29.7621 36.513 29.345 37.5502C28.7964 38.9042 28.6593 40.3899 28.951 41.8214C29.2428 43.2529 29.9503 44.5665 30.985 45.5977H18.25C11.3175 45.5977 5.75 40.0302 5.75 33.0977V19.8952C5.75 14.3952 9.325 9.56275 14.5775 7.94275L20.8275 6.06775C21.335 5.91025 22.7625 5.67525 24.1875 5.67525ZM37.7825 27.5502C37.9675 27.5802 38.1425 27.5502 38.3275 27.6302L47.625 31.3802C48.9325 31.9052 49.5575 33.2727 49.0325 34.5802C48.505 35.8902 47.0575 36.5152 45.75 35.9877L36.4525 32.3177C36.3175 32.2677 36.2575 32.1502 36.14 32.0827C37.1633 30.7893 37.7396 29.199 37.7825 27.5502ZM36.22 37.8627C36.55 37.8627 36.9025 37.8927 37.235 38.0202L40.5925 39.3477L43.875 40.6752L44.1875 40.7552C45.495 41.2802 46.12 42.7277 45.595 44.0352C45.4224 44.4806 45.1233 44.8657 44.7347 45.1433C44.346 45.4209 43.8847 45.5789 43.4075 45.5977H43.3275C42.9823 45.6095 42.6379 45.556 42.3125 45.4402L35.36 42.6277C35.0502 42.5074 34.7675 42.3265 34.5285 42.0957C34.2894 41.8648 34.0988 41.5886 33.9677 41.2832C33.8367 40.9778 33.7678 40.6493 33.7652 40.317C33.7626 39.9847 33.8263 39.6552 33.9525 39.3477C34.0732 39.0486 34.253 38.7769 34.4811 38.5488C34.7091 38.3207 34.9809 38.141 35.28 38.0202C35.5785 37.9012 35.899 37.8475 36.22 37.8627Z" fill="white"/>
</svg>
